<svg width="726" height="420" viewBox="0 0 726 420" fill="none" xmlns="http://www.w3.org/2000/svg">
<path d="M510.115 228.326C513.383 240.523 507.522 254.327 495.404 257.574L366.692 292.063C358.552 294.244 350.844 287.091 351.451 278.637C351.797 273.817 354.886 269.577 359.298 267.673C402.864 248.866 427.159 200.229 414.433 152.737C400.457 100.576 347.116 69.5473 295.294 83.4331C278.935 87.8164 264.683 96.1512 253.278 107.147C245.674 114.477 235.179 118.308 224.771 116.534C209.152 113.871 196.629 99.5226 194.206 83.7789C193.661 80.2408 192.919 76.6963 191.971 73.1582C177.994 20.9971 124.654 -10.0312 72.8314 3.85454C21.009 17.7403 -9.67121 71.2819 4.30533 123.443C11.5709 150.559 29.4741 171.963 52.2718 184.316C56.5948 186.659 59.992 190.519 61.269 195.285C62.2726 199.031 61.882 202.996 60.3619 206.553C47.3576 236.982 44.0845 271.901 53.3372 306.432C75.1755 387.934 158.52 436.416 239.493 414.719C256.672 410.116 272.365 402.723 286.22 393.154C332.393 361.262 372.847 315.72 427.011 301.207C492.396 283.687 566.733 319.566 633.532 308.583C637.069 308.001 640.611 307.24 644.147 306.293C702.447 290.671 736.962 230.437 721.238 171.756C705.515 113.074 645.507 78.1674 587.206 93.7889C528.906 109.41 494.391 169.645 510.115 228.326Z" fill="#F5F4ED"/>
</svg>
