<svg width="872" height="624" viewBox="0 0 872 624" fill="none" xmlns="http://www.w3.org/2000/svg">
<path d="M758.04 279.109C749.47 234.983 770.805 176.151 786.381 133.979C792.473 117.485 794.268 99.1689 790.671 80.6503C780.196 26.7196 727.964 -8.50433 674.006 1.9756C642.522 8.09049 617.408 28.4144 604.029 54.9974C589.915 83.0427 561.971 112.661 531.14 118.649C481.139 128.361 417.296 116.759 369.465 99.2649C346.39 90.8255 320.792 88.3635 294.912 93.3902C219.15 108.105 169.656 181.419 184.364 257.143C199.071 332.866 272.41 382.323 348.171 367.608C365.888 364.167 385.263 373.63 391.956 390.381C426.711 477.354 516.209 530.608 607.702 512.838C610.472 512.3 613.216 511.702 615.933 511.046C629.416 507.791 643.908 518.153 646.551 531.762C658.523 593.397 718.217 633.653 779.883 621.676C841.549 609.699 881.835 550.025 869.864 488.389C866.681 472 860.123 457.122 851.051 444.336C819.613 400.028 768.398 332.436 758.04 279.109Z" fill="#DBCBF8"/>
<path d="M2.61194 440.191C13.1419 494.406 65.6284 529.82 119.844 519.29C174.059 508.76 209.473 456.274 198.943 402.059C188.413 347.843 135.927 312.429 81.7114 322.959C27.496 333.489 -7.91801 385.976 2.61194 440.191Z" fill="#DBCBF8"/>
</svg>
